<svg width="200" height="200" viewBox="0 0 200 200" xmlns="http://www.w3.org/2000/svg">
  <!-- Navy Blue Background Circle -->
  <circle cx="100" cy="100" r="100" fill="#1e293b"/>
  
  <!-- Brain Design -->
  <g transform="translate(50, 50)">
    <!-- Left Brain (White) -->
    <path d="M10 50 C10 22, 32 10, 50 10 C55 10, 60 12, 60 15 L60 85 C60 88, 55 90, 50 90 C32 90, 10 78, 10 50 Z" fill="white"/>
    <circle cx="25" cy="35" r="8" fill="#1e293b"/>
    <circle cx="45" cy="30" r="6" fill="#1e293b"/>
    <circle cx="35" cy="55" r="7" fill="#1e293b"/>
    <circle cx="20" cy="65" r="5" fill="#1e293b"/>
    
    <!-- Right Brain (Orange) -->
    <path d="M90 50 C90 22, 68 10, 50 10 C45 10, 40 12, 40 15 L40 85 C40 88, 45 90, 50 90 C68 90, 90 78, 90 50 Z" fill="#f97316"/>
    <circle cx="75" cy="35" r="8" fill="white"/>
    <circle cx="55" cy="30" r="6" fill="white"/>
    <circle cx="65" cy="55" r="7" fill="white"/>
    <circle cx="80" cy="65" r="5" fill="white"/>
    
    <!-- Brain Stem -->
    <rect x="45" y="85" width="10" height="15" fill="#64748b" rx="5"/>
  </g>
  
  <!-- med.essence text -->
  <text x="100" y="165" text-anchor="middle" fill="white" font-family="Arial, sans-serif" font-size="18" font-weight="300">med.essence</text>
</svg>